<?xml version="1.0" encoding="utf-8"?>
<!-- Generator: Adobe Illustrator 24.1.1, SVG Export Plug-In . SVG Version: 6.00 Build 0)  -->
<svg version="1.1" id="Layer_1" xmlns="http://www.w3.org/2000/svg" xmlns:xlink="http://www.w3.org/1999/xlink" x="0px" y="0px"
	 viewBox="0 0 512 512" style="enable-background:new 0 0 512 512;" xml:space="preserve">
<g>
	<path d="M511.2,240.8c-4.5-92.2-60.5-178.4-143.6-217.7C276.9-17.7,166.5-1,90.9,62.5C18.4,122.9-14.9,221.2,6.3,313.4
		c19.7,90.7,90.7,164.8,179.9,189c107.3,30.2,205.6-21.2,266.1-108.8c-54.4,72.6-137.6,120.9-229.8,104.3
		c-92.2-16.6-167.8-86.2-189-176.9C10.8,224.2,56.2,122.9,142.3,73C231.5,21.7,357,41.3,416,129c15.1,21.2,25.7,46.9,30.2,72.6
		c4.5,21.2,3,43.8,6,65c3,19.6,19.7,45.4,42.3,31.7C514.2,286.2,512.7,260.5,511.2,240.8C511.2,234.8,512.7,251.4,511.2,240.8z"/>
</g>
</svg>
